<?xml version="1.0" ?><svg viewBox="0 0 100 100" xmlns="http://www.w3.org/2000/svg"><title/><g data-name="Layer 2" id="Layer_2"><path d="M69.09,32.15l9.35-3L75.86,16.7l-12.11,4c-4.35-6-10.89-6-15.29-5.12v0c-.17-1.64-.12-6.33,5.49-8.74L53.15,5A10.34,10.34,0,0,0,46.5,16v.07a19.92,19.92,0,0,0-2.71,1l-.58.26,0-.05a22.43,22.43,0,0,1-.76-11l-2-.42a24.33,24.33,0,0,0,.91,12.41l0,0q-.76.45-1.46,1l0-.06L32.2,8.44,30.58,9.61l3.79,5.27a11.36,11.36,0,0,0-9-.82L26,16c5.72-1.91,10.61,2.71,12.27,4.54l0,.05a14.9,14.9,0,0,0-3.8,5.81,17.93,17.93,0,0,0-.9,3.72c-2.34,1.77-14.49,11.6-14.29,25.28a23.61,23.61,0,0,0,2.1,9.3l0,.18.13,0c3,6.51,8.88,12.75,17.72,18.64C50.81,91.2,59.69,95,66.19,95a12.77,12.77,0,0,0,5.08-1c5.69-2.44,7.53-8.91,8.57-14.91C81.87,67.48,80.6,41.77,69.09,32.15Zm5.37,11.28.06.12C71,42.82,63.79,41.94,58.8,45.86a10.8,10.8,0,0,1,.44-7.33C60.46,36,63,34.06,66.66,32.85l0,0,.08.07C70.13,35.24,72.64,39,74.46,43.43ZM21.36,55.35C21.2,44.55,29.72,36,33.46,32.83a36.44,36.44,0,0,0,3.25,14.22A25,25,0,0,0,22.43,61.61,21.07,21.07,0,0,1,21.36,55.35ZM77.87,78.78c-1,5.48-2.58,11.35-7.39,13.42-5.88,2.53-16-1-30.1-10.35-8.32-5.55-13.94-11.36-16.8-17.37.79-2.77,4.23-12.38,14.82-15.91l1.1-.37-.53-1c-.06-.11-5.72-11.38-2.54-20.12a14,14,0,0,1,8.18-8.15c.47-.23,11.22-5.26,17.32,2.75l0,0a56.56,56.56,0,0,0-7.38,3.45c-1.93-.8-5.48-.93-8.18,3.21-3.57,5.47.46,12.31.63,12.6l.56.94.88-.65c.13-.1,3.24-2.41,2.88-5.28-.22-1.76-1.64-3.22-4.21-4.34a6.82,6.82,0,0,1,.93-2.18c2.64-4,5.73-2.48,6.07-2.29l.56.32.52-.37s3.94-2.72,19.1-7.77h0l1.77,8.47L64.51,31.51a12.77,12.77,0,0,0-7.08,6.15c-2.37,5-.11,10.14,0,10.36l.6,1.35,1-1.07c4.86-5,13.91-3.12,16.26-2.51l.06.09C79.11,56.91,79.22,71,77.87,78.78Zm-30.94-45c1.18.59,2.3,1.43,2.44,2.48a3.6,3.6,0,0,1-1.19,2.61A13.67,13.67,0,0,1,46.93,33.73Z"/></g></svg>