<?xml version="1.0" ?><svg viewBox="0 0 100 100" xmlns="http://www.w3.org/2000/svg"><title/><g data-name="Layer 2" id="Layer_2"><path d="M72.57,47.22a11.89,11.89,0,0,0-9.27,2.63c-4.57,3.93-6.46,11.67-5.62,23L55.5,73c-.89-12.06,1.26-20.41,6.37-24.81A14,14,0,0,1,72.43,45h.09V45a3.69,3.69,0,0,1,.89-1.66c-1.54-1.31-4.07-3.93-4.34-7.23-.2-2.45.85-4.76,3.12-6.88,3.58-3.34,10.73-2.78,15.3,1.2,3.93,3.41,5.06,5.79,6,8.12a21.17,21.17,0,0,1-2.71,20.78,13.71,13.71,0,0,1-10.8,4.83,16.19,16.19,0,0,1-1.77-.1c-4.68-.52-9.69-3.24-9.69-9.32,0-2.62,2.16-5.37,4.44-6.65a6.45,6.45,0,0,1-.29-.82Zm1.11-16.45c-1.75,1.64-2.57,3.35-2.43,5.1.29,3.63,4.51,6.48,4.55,6.51l1.51,1-1.6.86a1.89,1.89,0,0,0-1.06,1.2,3.66,3.66,0,0,0,.67,2.48l.87,1.21-1.42.46c-1.82.59-4.12,3.11-4.12,5.1,0,5.84,5.93,7,7.75,7.15,4.27.47,8.34-1,10.63-3.92a19,19,0,0,0,2.39-18.64c-.83-2.15-1.81-4.17-5.37-7.26a12,12,0,0,0-7.64-2.82A6.91,6.91,0,0,0,73.67,30.77Z"/><path d="M27.38,47.22a6.45,6.45,0,0,1-.29.82c2.28,1.29,4.44,4,4.44,6.65,0,6.08-5,8.8-9.69,9.32a16.19,16.19,0,0,1-1.77.1,13.71,13.71,0,0,1-10.8-4.83A21.17,21.17,0,0,1,6.55,38.49c.9-2.33,2-4.71,6-8.12,4.57-4,11.72-4.53,15.3-1.2,2.27,2.12,3.32,4.43,3.12,6.88-.27,3.31-2.8,5.93-4.34,7.23A3.69,3.69,0,0,1,27.47,45V45h.09a14,14,0,0,1,10.55,3.19C43.24,52.6,45.39,60.95,44.5,73l-2.17-.16c.84-11.33-1.06-19.07-5.62-23a11.89,11.89,0,0,0-9.27-2.63Zm-5.79-18A12,12,0,0,0,13.94,32c-3.55,3.09-4.53,5.12-5.37,7.26A19,19,0,0,0,11,57.92c2.29,2.89,6.36,4.39,10.63,3.92,1.82-.2,7.75-1.31,7.75-7.15,0-2-2.3-4.52-4.12-5.1l-1.42-.46.87-1.21a3.66,3.66,0,0,0,.67-2.48,1.89,1.89,0,0,0-1.06-1.2l-1.6-.86,1.51-1s4.25-2.88,4.55-6.51c.14-1.75-.68-3.46-2.43-5.1A6.91,6.91,0,0,0,21.59,29.2Z"/></g></svg>